<svg width="20" height="20" viewBox="0 0 20 20" fill="none" xmlns="http://www.w3.org/2000/svg">
<path fill-rule="evenodd" clip-rule="evenodd" d="M8 0.25C8 0.3875 7.55 0.5 7 0.5C6.45 0.5 6 0.6125 6 0.75C6 0.8875 5.79975 1 5.55525 1C5.3105 1 4.94825 1.225 4.75 1.5C4.55175 1.775 4.242 2 4.0615 2C3.635 2 2 3.635 2 4.0615C2 4.242 1.775 4.55175 1.5 4.75C1.225 4.94825 1 5.3105 1 5.55525C1 5.79975 0.8875 6 0.75 6C0.6125 6 0.5 6.45 0.5 7C0.5 7.55 0.3875 8 0.25 8C0.10425 8 0 8.83325 0 10C0 11.1667 0.10425 12 0.25 12C0.3875 12 0.5 12.45 0.5 13C0.5 13.55 0.6125 14 0.75 14C0.8875 14 1 14.2002 1 14.4447C1 14.6895 1.225 15.0518 1.5 15.25C1.775 15.4482 2 15.758 2 15.9385C2 16.365 3.635 18 4.0615 18C4.242 18 4.55175 18.225 4.75 18.5C4.94825 18.775 5.3105 19 5.55525 19C5.79975 19 6 19.1125 6 19.25C6 19.3875 6.45 19.5 7 19.5C7.55 19.5 8 19.6125 8 19.75C8 19.8958 8.83325 20 10 20C11.1667 20 12 19.8958 12 19.75C12 19.6125 12.45 19.5 13 19.5C13.55 19.5 14 19.3875 14 19.25C14 19.1125 14.2002 19 14.4447 19C14.6895 19 15.0518 18.775 15.25 18.5C15.4482 18.225 15.7655 18 15.955 18C16.1443 18 16.6147 17.6625 17 17.25C17.3853 16.8375 17.768 16.5 17.8503 16.5C17.9328 16.5 18 17.2875 18 18.25V20H19H20V14C20 10.1667 19.9097 8 19.75 8C19.6125 8 19.5 7.55 19.5 7C19.5 6.45 19.3875 6 19.25 6C19.1125 6 19 5.79975 19 5.55525C19 5.3105 18.775 4.94825 18.5 4.75C18.225 4.55175 18 4.242 18 4.0615C18 3.635 16.365 2 15.9385 2C15.758 2 15.4482 1.775 15.25 1.5C15.0518 1.225 14.6895 1 14.4447 1C14.2002 1 14 0.8875 14 0.75C14 0.6125 13.55 0.5 13 0.5C12.45 0.5 12 0.3875 12 0.25C12 0.10425 11.1667 0 10 0C8.83325 0 8 0.10425 8 0.25ZM11.3862 3.61375C12.1982 4.4255 12.1982 5.5745 11.3862 6.38625C9.56525 8.2075 6.802 5.51175 8.5625 3.63125C9.331 2.81075 10.5755 2.80275 11.3862 3.61375ZM6.38625 8.61375C7.19825 9.4255 7.19825 10.5745 6.38625 11.3862C4.56525 13.2075 1.802 10.5118 3.5625 8.63125C4.331 7.81075 5.5755 7.80275 6.38625 8.61375ZM16.3862 8.61375C17.1982 9.4255 17.1982 10.5745 16.3862 11.3862C14.5652 13.2075 11.802 10.5118 13.5625 8.63125C14.331 7.81075 15.5755 7.80275 16.3862 8.61375ZM10.6427 9.35725C10.8392 9.5535 11 9.84275 11 10C11 10.369 10.369 11 10 11C9.6345 11 9 10.3702 9 10.0072C9 9.611 9.56525 9.02075 9.95525 9.0095C10.137 9.00425 10.4465 9.16075 10.6427 9.35725ZM11.3862 13.6138C12.1982 14.4255 12.1982 15.5745 11.3862 16.3862C9.56525 18.2075 6.802 15.5118 8.5625 13.6313C9.331 12.8108 10.5755 12.8028 11.3862 13.6138Z" fill="#808080"/>
</svg>
