<svg width="20" height="20" viewBox="0 0 20 20" fill="none" xmlns="http://www.w3.org/2000/svg">
<path fill-rule="evenodd" clip-rule="evenodd" d="M13.8612 1.02314V2.04627H15.1401C15.8435 2.04627 16.419 2.10766 16.419 2.1826C16.419 2.2578 16.02 2.71822 15.5322 3.20574C14.6782 4.06006 13.8612 4.36853 13.8612 3.83676C13.8612 3.69608 13.631 3.58097 13.3496 3.58097C13.0683 3.58097 12.8381 3.46587 12.8381 3.32519C12.8381 3.18298 12.1559 3.06941 11.3033 3.06941C10.4508 3.06941 9.76864 3.18298 9.76864 3.32519C9.76864 3.46587 9.53844 3.58097 9.25708 3.58097C8.97571 3.58097 8.74551 3.69608 8.74551 3.83676C8.74551 3.97744 8.56774 4.09254 8.35032 4.09254C7.8385 4.09254 6.69924 5.2318 6.69924 5.74363C6.69924 5.96104 6.58413 6.13881 6.44345 6.13881C6.30277 6.13881 6.18767 6.36902 6.18767 6.65038C6.18767 6.93174 6.07257 7.16195 5.93188 7.16195C5.78967 7.16195 5.6761 7.84413 5.6761 8.69665C5.6761 9.54918 5.78967 10.2314 5.93188 10.2314C6.07257 10.2314 6.18767 10.4616 6.18767 10.7429C6.18767 11.0243 6.30277 11.2545 6.44345 11.2545C6.58413 11.2545 6.69924 11.4323 6.69924 11.6497C6.69924 12.1615 7.8385 13.3008 8.35032 13.3008C8.56774 13.3008 8.74551 13.4159 8.74551 13.5565C8.74551 14.0297 9.53076 13.8177 10.1789 13.1695C10.7478 12.6007 10.778 12.483 10.4414 12.1464C10.2321 11.9372 9.93388 11.7661 9.77836 11.7661C9.62285 11.7661 9.0967 11.367 8.60917 10.8793C7.83108 10.1012 7.72237 9.83412 7.72237 8.69844C7.72237 7.50675 7.81292 7.31363 8.86675 6.26006C9.91981 5.20674 10.1137 5.11568 11.3033 5.11568C12.493 5.11568 12.6869 5.20674 13.7399 6.26006L14.8843 7.40418V10.0968C14.8843 11.5775 14.9501 12.7892 15.0304 12.7892C15.3307 12.7892 15.9075 12.0441 15.9075 11.6563C15.9075 11.4353 16.0226 11.2545 16.1632 11.2545C16.3039 11.2545 16.419 11.0243 16.419 10.7429C16.419 10.4616 16.5341 10.2314 16.6748 10.2314C16.817 10.2314 16.9306 9.54918 16.9306 8.69665C16.9306 7.84413 16.817 7.16195 16.6748 7.16195C16.5341 7.16195 16.419 6.93174 16.419 6.65038C16.419 6.36902 16.3039 6.13881 16.1632 6.13881C15.6315 6.13881 15.9399 5.32184 16.7943 4.46778C17.2818 3.98 17.7422 3.58097 17.8174 3.58097C17.8923 3.58097 17.9537 4.15649 17.9537 4.85989V6.13881H18.9769H20V3.06941V0H16.9306H13.8612V1.02314ZM9.30747 7.31005C8.78695 7.86536 8.76239 7.98276 9.09721 8.31758C9.30568 8.52605 9.60341 8.69665 9.75892 8.69665C9.91444 8.69665 10.4406 9.09568 10.9281 9.58346C11.7062 10.3616 11.8149 10.6286 11.8149 11.7643C11.8149 12.956 11.7244 13.1491 10.6705 14.2027C9.61748 15.256 9.42359 15.347 8.23394 15.347C7.04429 15.347 6.8504 15.256 5.79734 14.2027L4.65297 13.0585V10.3659C4.65297 8.88517 4.58723 7.67352 4.50691 7.67352C4.20662 7.67352 3.62983 8.41862 3.62983 8.80639C3.62983 9.02738 3.51473 9.20822 3.37405 9.20822C3.23336 9.20822 3.11826 9.43843 3.11826 9.71979C3.11826 10.0012 3.00316 10.2314 2.86248 10.2314C2.72026 10.2314 2.60669 10.9135 2.60669 11.7661C2.60669 12.6186 2.72026 13.3008 2.86248 13.3008C3.00316 13.3008 3.11826 13.531 3.11826 13.8123C3.11826 14.0937 3.23336 14.3239 3.37405 14.3239C3.75388 14.3239 3.68354 15.0741 3.26431 15.4931C2.75812 15.9995 2.27392 15.9499 1.83934 15.347C1.40477 14.7442 0.920566 14.6945 0.41437 15.201C-0.0920822 15.7072 -0.0424602 16.1914 0.560423 16.626C1.21702 17.0992 1.20909 17.5979 0.536123 18.1819L0 18.6466L0.676804 19.3232L1.35335 20L1.81811 19.4639C2.40539 18.7868 2.808 18.7868 3.39528 19.4639L3.86003 20L4.53658 19.3232L5.21339 18.6466L4.67726 18.1819C4.04906 17.6368 4.00225 17.2401 4.50691 16.7357C4.92589 16.3165 5.6761 16.2461 5.6761 16.626C5.6761 16.7666 5.90631 16.8817 6.18767 16.8817C6.46903 16.8817 6.69924 16.9968 6.69924 17.1375C6.69924 17.2797 7.38141 17.3933 8.23394 17.3933C9.08647 17.3933 9.76864 17.2797 9.76864 17.1375C9.76864 16.9968 9.99885 16.8817 10.2802 16.8817C10.5616 16.8817 10.7918 16.7666 10.7918 16.626C10.7918 16.4853 10.9695 16.3702 11.187 16.3702C11.6988 16.3702 12.8381 15.2309 12.8381 14.7191C12.8381 14.5017 12.9532 14.3239 13.0938 14.3239C13.2345 14.3239 13.3496 14.0937 13.3496 13.8123C13.3496 13.531 13.4647 13.3008 13.6054 13.3008C13.7476 13.3008 13.8612 12.6186 13.8612 11.7661C13.8612 10.9135 13.7476 10.2314 13.6054 10.2314C13.4647 10.2314 13.3496 10.0012 13.3496 9.71979C13.3496 9.43843 13.2345 9.20822 13.0938 9.20822C12.9532 9.20822 12.8381 9.03045 12.8381 8.81304C12.8381 8.59562 12.5554 8.13521 12.2101 7.7899C11.8648 7.44459 11.4044 7.16195 11.187 7.16195C10.9695 7.16195 10.7918 7.04685 10.7918 6.90617C10.7918 6.43373 9.90191 6.6757 9.30747 7.31005Z" fill="#808080"/>
</svg>
