<svg width="18" height="20" viewBox="0 0 18 20" fill="none" xmlns="http://www.w3.org/2000/svg">
<path fill-rule="evenodd" clip-rule="evenodd" d="M6.5 0.25C6.5 0.3875 6.1625 0.5 5.75 0.5C5.3375 0.5 5 0.6125 5 0.75C5 0.8875 4.79975 1 4.55525 1C4.3105 1 3.94825 1.225 3.75 1.5C3.55175 1.775 3.23775 2 3.052 2C2.61675 2 2 2.61675 2 3.052C2 3.23775 1.775 3.55175 1.5 3.75C1.225 3.94825 1 4.3105 1 4.55525C1 4.79975 0.8875 5 0.75 5C0.6125 5 0.5 5.3375 0.5 5.75C0.5 6.1625 0.3875 6.5 0.25 6.5C0.10725 6.5 0 7.25 0 8.25C0 9.25 0.10725 10 0.25 10C0.3875 10 0.5 10.225 0.5 10.5C0.5 10.775 0.6125 11 0.75 11C0.8875 11 1 11.2002 1 11.4447C1 11.6895 1.225 12.0518 1.5 12.25C1.775 12.4482 2 12.763 2 12.9497C2 13.1365 2.45 13.7215 3 14.25C3.55 14.7785 4 15.3635 4 15.5502C4 15.737 4.225 16.0518 4.5 16.25C4.775 16.4482 5 16.8105 5 17.0553C5 17.2997 5.1125 17.5 5.25 17.5C5.3875 17.5 5.5 17.6737 5.5 17.8862C5.5 18.3865 6.6135 19.5 7.11375 19.5C7.32625 19.5 7.5 19.6125 7.5 19.75C7.5 19.889 8.16675 20 9 20C9.83325 20 10.5 19.889 10.5 19.75C10.5 19.6125 10.6737 19.5 10.8862 19.5C11.3865 19.5 12.5 18.3865 12.5 17.8862C12.5 17.6737 12.6125 17.5 12.75 17.5C12.8875 17.5 13 17.2997 13 17.0553C13 16.8105 13.225 16.4482 13.5 16.25C13.775 16.0518 14 15.737 14 15.5502C14 15.3635 14.45 14.7785 15 14.25C15.55 13.7215 16 13.1365 16 12.9497C16 12.763 16.225 12.4482 16.5 12.25C16.775 12.0518 17 11.6895 17 11.4447C17 11.2002 17.1125 11 17.25 11C17.3875 11 17.5 10.775 17.5 10.5C17.5 10.225 17.6125 10 17.75 10C17.8927 10 18 9.25 18 8.25C18 7.25 17.8927 6.5 17.75 6.5C17.6125 6.5 17.5 6.1625 17.5 5.75C17.5 5.3375 17.3875 5 17.25 5C17.1125 5 17 4.82925 17 4.62025C17 4.126 13.874 1 13.3797 1C13.1707 1 13 0.8875 13 0.75C13 0.6125 12.55 0.5 12 0.5C11.45 0.5 11 0.3875 11 0.25C11 0.10175 10.0833 0 8.75 0C7.41675 0 6.5 0.10175 6.5 0.25ZM5.5 7.25C5.5 7.3875 5.6725 7.5 5.88325 7.5C6.09425 7.5 6.65675 7.89 7.13325 8.36675C7.84075 9.074 8 9.422 8 10.2595C8 10.824 7.83925 11.4465 7.64275 11.6427C7.239 12.0468 5.5 12.1335 5.5 11.75C5.5 11.6125 5.32625 11.5 5.11375 11.5C4.6135 11.5 3.5 10.3865 3.5 9.88625C3.5 9.67375 3.3875 9.5 3.25 9.5C2.891 9.5 2.941 7.79575 3.3125 7.374C3.667 6.97125 5.5 6.8675 5.5 7.25ZM14.6427 7.35725C15.0468 7.761 15.1335 9.5 14.75 9.5C14.6125 9.5 14.5 9.67375 14.5 9.88625C14.5 10.3865 13.3865 11.5 12.8862 11.5C12.6737 11.5 12.5 11.6125 12.5 11.75C12.5 12.1335 10.761 12.0468 10.3573 11.6427C9.95325 11.239 9.8665 9.5 10.25 9.5C10.3875 9.5 10.5 9.328 10.5 9.118C10.5 8.90775 10.8655 8.353 11.3125 7.885C11.9827 7.18325 12.314 7.03125 13.2052 7.01725C13.8292 7.00725 14.4365 7.15075 14.6427 7.35725ZM8.5 14.25C8.5 14.8333 8.389 15 8 15C7.435 15 7.33725 14.4137 7.8125 13.874C8.29775 13.3228 8.5 13.4335 8.5 14.25ZM10.1427 13.8573C10.6632 14.3775 10.5852 15 10 15C9.611 15 9.5 14.8333 9.5 14.25C9.5 13.4113 9.62225 13.3365 10.1427 13.8573Z" fill="#808080"/>
</svg>
