<svg width="20" height="20" viewBox="0 0 20 20" fill="none" xmlns="http://www.w3.org/2000/svg">
<path fill-rule="evenodd" clip-rule="evenodd" d="M9 0.25C9 0.3875 9.176 0.5 9.39125 0.5C9.6065 0.5 10.3568 1.0895 11.0588 1.81025C11.8077 2.57925 12.3775 2.99225 12.4382 2.81025C12.4952 2.6395 12.7572 2.5 13.0208 2.5C13.2845 2.5 13.5 2.3875 13.5 2.25C13.5 2.1125 13.725 2 14 2C14.3333 2 14.5 1.83325 14.5 1.5C14.5 1.16675 14.3333 1 14 1C13.725 1 13.5 0.8875 13.5 0.75C13.5 0.6125 13.1625 0.5 12.75 0.5C12.3375 0.5 12 0.3875 12 0.25C12 0.111 11.3333 0 10.5 0C9.66675 0 9 0.111 9 0.25ZM4.8125 1.374C4.64075 1.56925 4.5 1.9025 4.5 2.1145C4.5 2.3265 4.3875 2.5 4.25 2.5C4.10725 2.5 4 3.25 4 4.25C4 5.25 4.10725 6 4.25 6C4.3875 6 4.5 6.225 4.5 6.5C4.5 6.83325 4.66675 7 5 7C5.275 7 5.5 6.8875 5.5 6.75C5.5 6.6125 5.725 6.5 6 6.5C6.275 6.5 6.5 6.3875 6.5 6.25C6.5 6.1125 6.70025 6 6.94475 6C7.1895 6 7.55175 5.775 7.75 5.5C7.94825 5.225 8.3105 5 8.55525 5C8.79975 5 9 4.8875 9 4.75C9 4.6125 9.225 4.5 9.5 4.5C9.7825 4.5 10 4.33325 10 4.11675C10 3.619 8.381 2 7.88325 2C7.6725 2 7.5 1.8875 7.5 1.75C7.5 1.6125 7.275 1.5 7 1.5C6.725 1.5 6.5 1.3875 6.5 1.25C6.5 0.8715 5.16875 0.96925 4.8125 1.374ZM16.5 2.75C16.5 2.8875 16.2997 3 16.0553 3C15.8105 3 15.4482 3.225 15.25 3.5C15.0518 3.775 14.7378 4 14.552 4C14.3663 4 14.0413 4.173 13.8298 4.3845C13.4838 4.7305 13.4983 4.81475 13.9727 5.22625C14.2627 5.47775 14.5 5.8425 14.5 6.03675C14.5 6.23075 14.725 6.55175 15 6.75C15.275 6.94825 15.5 7.3105 15.5 7.55525C15.5 7.79975 15.6125 8 15.75 8C15.8875 8 16 8.17675 16 8.39275C16 8.87475 16.5942 9.5 17.052 9.5C17.2377 9.5 17.5518 9.275 17.75 9C17.9482 8.725 18.2623 8.5 18.448 8.5C19.0473 8.5 19.5 7.8085 19.5 6.89275C19.5 6.40175 19.3875 6 19.25 6C19.1125 6 19 5.79975 19 5.55525C19 5.3105 18.775 4.94825 18.5 4.75C18.225 4.55175 18 4.2405 18 4.0585C18 3.7395 16.9155 2.5 16.6362 2.5C16.5612 2.5 16.5 2.6125 16.5 2.75ZM1.3125 4.874C1.14075 5.06925 1 5.515 1 5.8645C1 6.214 0.8875 6.5 0.75 6.5C0.6125 6.5 0.5 6.8375 0.5 7.25C0.5 7.6625 0.3875 8 0.25 8C0.1125 8 0 8.45 0 9C0 9.55 0.1125 10 0.25 10C0.3875 10 0.5 9.8875 0.5 9.75C0.5 9.6125 0.67375 9.5 0.88625 9.5C1.60975 9.5 2.5 8.334 2.5 7.38625C2.5 6.89875 2.3875 6.5 2.25 6.5C2.1125 6.5 2 6.05 2 5.5C2 4.44625 1.82725 4.28925 1.3125 4.874ZM11.5 5.75C11.5 5.8875 11.275 6 11 6C10.725 6 10.5 6.1125 10.5 6.25C10.5 6.3875 10.2998 6.5 10.0553 6.5C9.8105 6.5 9.44825 6.725 9.25 7C9.05175 7.275 8.6895 7.5 8.44475 7.5C8.20025 7.5 8 7.6125 8 7.75C8 7.8875 7.775 8 7.5 8C7.225 8 7 8.1125 7 8.25C7 8.3875 6.82325 8.5 6.60725 8.5C6.391 8.5 6.0535 8.66075 5.85725 8.85725C5.45125 9.263 5.3705 10.5 5.75 10.5C5.8875 10.5 6 10.725 6 11C6 11.275 6.1125 11.5 6.25 11.5C6.3875 11.5 6.5 11.7002 6.5 11.9447C6.5 12.1895 6.725 12.5518 7 12.75C7.275 12.9482 7.5 13.2622 7.5 13.448C7.5 13.956 8.30875 14.699 8.43825 14.3102C8.49525 14.1395 8.75725 14 9.02075 14C9.2845 14 9.5 13.8875 9.5 13.75C9.5 13.6125 9.70025 13.5 9.94475 13.5C10.1895 13.5 10.5518 13.275 10.75 13C10.9482 12.725 11.3105 12.5 11.5553 12.5C11.7998 12.5 12 12.3875 12 12.25C12 12.1125 12.225 12 12.5 12C12.775 12 13 11.8875 13 11.75C13 11.6125 13.1768 11.5 13.3927 11.5C13.609 11.5 13.9465 11.3392 14.1427 11.1427C14.5487 10.737 14.6295 9.5 14.25 9.5C14.1125 9.5 14 9.275 14 9C14 8.725 13.8875 8.5 13.75 8.5C13.6125 8.5 13.5 8.29975 13.5 8.05525C13.5 7.8105 13.275 7.44825 13 7.25C12.725 7.05175 12.5 6.73775 12.5 6.552C12.5 6.2165 11.9163 5.5 11.6427 5.5C11.5642 5.5 11.5 5.6125 11.5 5.75ZM19.5 10.25C19.5 10.3875 19.3263 10.5 19.1138 10.5C18.3903 10.5 17.5 11.666 17.5 12.6138C17.5 13.1013 17.6125 13.5 17.75 13.5C17.8875 13.5 18 13.95 18 14.5C18 15.05 18.0642 15.5 18.1427 15.5C18.5087 15.5 19 14.722 19 14.1427C19 13.7892 19.1125 13.5 19.25 13.5C19.3875 13.5 19.5 13.1625 19.5 12.75C19.5 12.3375 19.6125 12 19.75 12C19.8875 12 20 11.55 20 11C20 10.45 19.8875 10 19.75 10C19.6125 10 19.5 10.1125 19.5 10.25ZM2.25 11C2.05175 11.275 1.73775 11.5 1.552 11.5C0.95275 11.5 0.5 12.1915 0.5 13.1073C0.5 13.5983 0.6125 14 0.75 14C0.8875 14 1 14.2002 1 14.4447C1 14.6895 1.225 15.0518 1.5 15.25C1.775 15.4482 2 15.7595 2 15.9415C2 16.4322 3.3155 17.6782 3.43975 17.3055C3.49575 17.1375 3.7325 17 3.96575 17C4.19875 17 4.55175 16.775 4.75 16.5C4.94825 16.225 5.26225 16 5.448 16C5.63375 16 5.95875 15.827 6.17025 15.6155C6.51625 15.2695 6.50175 15.1853 6.02725 14.7738C5.73725 14.5223 5.5 14.1575 5.5 13.9633C5.5 13.7692 5.275 13.4482 5 13.25C4.725 13.0518 4.5 12.6895 4.5 12.4447C4.5 12.2002 4.3875 12 4.25 12C4.1125 12 4 11.8232 4 11.6073C4 11.1252 3.40575 10.5 2.948 10.5C2.76225 10.5 2.44825 10.725 2.25 11ZM14.5 13.25C14.5 13.3875 14.275 13.5 14 13.5C13.725 13.5 13.5 13.6125 13.5 13.75C13.5 13.8875 13.2998 14 13.0553 14C12.8105 14 12.4482 14.225 12.25 14.5C12.0518 14.775 11.6895 15 11.4447 15C11.2002 15 11 15.1125 11 15.25C11 15.3875 10.775 15.5 10.5 15.5C10.2175 15.5 10 15.6667 10 15.8832C10 16.381 11.619 18 12.1167 18C12.3275 18 12.5 18.1125 12.5 18.25C12.5 18.3875 12.725 18.5 13 18.5C13.275 18.5 13.5 18.6125 13.5 18.75C13.5 18.8875 13.725 19 14 19C14.275 19 14.5 18.8875 14.5 18.75C14.5 18.6125 14.725 18.5 15 18.5C15.3333 18.5 15.5 18.3333 15.5 18C15.5 17.725 15.6125 17.5 15.75 17.5C15.8927 17.5 16 16.75 16 15.75C16 14.75 15.8927 14 15.75 14C15.6125 14 15.5 13.775 15.5 13.5C15.5 13.1667 15.3333 13 15 13C14.725 13 14.5 13.1125 14.5 13.25ZM7.5 17.25C7.5 17.3875 7.275 17.5 7 17.5C6.725 17.5 6.5 17.6125 6.5 17.75C6.5 17.8875 6.275 18 6 18C5.66675 18 5.5 18.1667 5.5 18.5C5.5 18.8333 5.66675 19 6 19C6.275 19 6.5 19.1125 6.5 19.25C6.5 19.3875 6.8375 19.5 7.25 19.5C7.6625 19.5 8 19.6125 8 19.75C8 19.889 8.66675 20 9.5 20C10.3333 20 11 19.889 11 19.75C11 19.6125 10.824 19.5 10.6088 19.5C10.3935 19.5 9.66975 18.9375 9 18.25C7.76175 16.9788 7.5 16.8043 7.5 17.25Z" fill="#808080"/>
</svg>
